<svg width="404" height="135" viewBox="0 0 404 135" fill="none" xmlns="http://www.w3.org/2000/svg">
<path fill-rule="evenodd" clip-rule="evenodd" d="M0.929246 1.699C-0.237754 3.044 -0.279754 13.159 0.658246 67.337C1.26825 102.564 2.02625 131.645 2.34225 131.962C2.65925 132.278 3.27225 131.964 3.70425 131.264C4.32025 130.268 7.62825 130.164 18.9002 130.784L33.3092 131.576L19.0542 132.174C5.93625 132.724 2.63625 133.255 3.98025 134.599C4.25725 134.876 13.2192 134.62 23.8962 134.029C35.2352 133.402 99.0393 132.824 177.309 132.639C346.359 132.241 402.476 131.405 403.294 129.274C403.614 128.438 403.465 127.494 402.961 127.175C402.437 126.843 401.748 100.758 401.347 66.095C400.857 23.625 400.3 4.761 399.479 2.798L398.309 0L256.809 0.717C178.984 1.111 110.584 1.47 104.809 1.514C99.0342 1.559 73.6092 1.261 48.3092 0.852C6.91624 0.183 2.17125 0.268 0.929246 1.699ZM29.5592 2.84C24.7462 3.023 16.8712 3.023 12.0592 2.84C7.24625 2.656 11.1842 2.506 20.8092 2.506C30.4342 2.506 34.3722 2.656 29.5592 2.84ZM232.008 2.841C226.893 3.023 218.793 3.022 214.008 2.839C209.224 2.656 213.409 2.507 223.309 2.508C233.209 2.509 237.124 2.659 232.008 2.841ZM266.059 2.839C261.521 3.024 254.097 3.024 249.559 2.839C245.022 2.654 248.734 2.502 257.809 2.502C266.884 2.502 270.597 2.654 266.059 2.839ZM395.361 4.313C397.036 5.988 397.978 45.005 397.3 84.595L396.581 126.595L282.445 126.684C196.701 126.751 156.083 127.194 119.16 128.467C78.8712 129.857 64.1922 129.972 37.7232 129.108C19.9642 128.528 5.27225 127.892 5.07525 127.694C4.10225 126.722 2.97425 59.108 3.51125 34.004L4.12325 5.412L50.1692 4.719C75.4942 4.338 133.361 4.286 178.762 4.603C224.163 4.92 279.984 4.76 302.809 4.247C349.193 3.204 394.284 3.237 395.361 4.313ZM398.492 7.283C398.173 8.08 397.936 7.843 397.888 6.678C397.845 5.624 398.081 5.034 398.413 5.366C398.745 5.698 398.781 6.561 398.492 7.283ZM399.546 122.345C399.344 125.232 399.179 122.87 399.179 117.095C399.179 111.32 399.344 108.957 399.546 111.845C399.748 114.733 399.748 119.458 399.546 122.345ZM355.309 129.155C304.107 130.179 148.588 130.983 149.35 130.22C150.383 129.185 212.156 128.481 304.809 128.447C374.484 128.421 384.772 128.565 355.309 129.155ZM134.089 130.826C131.768 131.035 127.718 131.038 125.089 130.831C122.46 130.625 124.359 130.453 129.309 130.45C134.259 130.447 136.41 130.616 134.089 130.826Z" fill="black"/>
</svg>
